<?xml version="1.0" standalone="no"?>
<!DOCTYPE svg PUBLIC "-//W3C//DTD SVG 20010904//EN"
 "http://www.w3.org/TR/2001/REC-SVG-20010904/DTD/svg10.dtd">
<svg version="1.0" xmlns="http://www.w3.org/2000/svg"
 width="80.000000pt" height="80.000000pt" viewBox="0 0 1024.000000 1024.000000"
 preserveAspectRatio="xMidYMid meet">

<g transform="translate(0.000000,1024.000000) scale(0.100000,-0.100000)"
fill="#000000" stroke="none">
<path d="M6378 8823 c7 -3 16 -2 19 1 4 3 -2 6 -13 5 -11 0 -14 -3 -6 -6z"/>
<path d="M6455 8814 c341 -48 549 -152 673 -338 73 -110 94 -170 100 -297 3
-79 0 -126 -12 -180 -16 -69 -45 -140 -46 -112 0 18 -235 211 -355 292 -506
344 -1184 532 -1773 492 -91 -6 -167 -13 -169 -15 -2 -2 108 -6 244 -9 269 -5
419 -23 655 -77 462 -105 893 -315 1233 -600 61 -51 120 -100 133 -110 l23
-19 -30 -58 c-48 -95 -48 -95 -143 -15 -182 151 -342 257 -560 368 -533 270
-1098 380 -1723 334 -993 -74 -1839 -586 -2416 -1467 -162 -247 -324 -623
-393 -913 -138 -572 -107 -1261 80 -1842 64 -197 209 -527 225 -511 11 11 79
192 79 210 0 8 -15 47 -34 86 -114 242 -215 616 -248 922 -17 158 -17 608 0
745 85 670 398 1291 898 1782 432 424 976 692 1604 790 129 20 183 22 485 23
366 0 435 -6 685 -61 236 -53 552 -173 769 -293 209 -117 458 -300 596 -440
l69 -71 -48 -45 c-27 -25 -52 -45 -55 -45 -3 0 -36 28 -72 63 -342 327 -816
579 -1279 681 -250 55 -321 61 -670 60 -286 0 -343 -3 -470 -23 -412 -64 -795
-209 -1128 -428 -313 -206 -613 -520 -835 -871 -79 -125 -199 -367 -250 -502
-190 -501 -225 -1130 -96 -1698 32 -141 99 -355 141 -452 l24 -55 77 118 c118
181 230 325 439 564 47 54 119 150 159 213 78 124 178 257 229 305 51 48 101
122 116 171 l13 45 -55 79 c-97 140 -151 291 -173 494 -26 226 52 505 176 632
54 56 145 100 247 119 100 19 324 19 486 0 197 -23 206 -22 275 30 142 108
309 161 431 137 33 -7 87 -26 121 -43 142 -69 295 -259 334 -413 10 -41 17
-50 48 -63 56 -24 282 -95 286 -91 8 7 -27 123 -56 186 -15 35 -49 93 -74 130
l-46 67 46 -49 c64 -68 119 -165 152 -269 28 -86 28 -87 68 -98 22 -5 85 -22
140 -38 l100 -28 6 26 c13 51 9 265 -6 367 -25 163 -92 341 -159 421 l-26 31
40 0 c22 1 49 4 60 7 20 6 20 6 -1 -38 l-22 -45 46 -90 c76 -147 90 -219 92
-472 l1 -214 95 -27 c298 -86 444 -175 624 -383 l60 -68 45 41 c164 153 459
293 764 362 72 16 131 31 133 32 1 2 -25 70 -58 152 -50 125 -136 299 -206
420 -10 17 -19 31 -19 33 -3 7 -161 -57 -254 -103 -260 -131 -480 -312 -663
-548 -33 -42 -62 -75 -65 -72 -6 6 65 109 136 198 172 213 476 426 750 527
l73 26 -57 80 c-68 96 -192 250 -228 283 -31 29 -32 38 -8 60 9 9 29 31 44 48
l26 33 73 -78 c79 -84 239 -295 270 -355 l20 -37 94 2 c52 2 95 5 95 8 0 3
-27 50 -60 105 -122 202 -252 365 -420 529 l-91 89 37 76 c20 42 38 78 41 81
6 6 236 -225 307 -310 35 -41 89 -113 121 -160 69 -103 74 -108 45 -50 -69
136 -213 330 -364 487 l-88 93 17 47 c26 71 32 270 11 353 -49 195 -194 361
-395 452 -90 42 -238 77 -335 82 -45 2 -67 2 -51 0z m-1190 -1391 c9 -13 30
-33 48 -44 l32 -19 -67 1 c-70 2 -96 -8 -137 -53 l-21 -21 10 34 c14 49 13 54
-20 88 l-30 30 35 -6 c45 -7 81 16 103 65 l15 37 8 -44 c5 -24 16 -54 24 -68z
m1611 -160 c10 -7 25 -13 33 -13 9 0 -3 -9 -25 -19 -23 -11 -44 -25 -46 -32
-3 -8 -10 2 -17 22 -15 47 -43 72 -81 73 -16 1 -30 2 -30 3 0 1 20 11 44 22
25 11 51 29 58 40 12 19 14 17 30 -31 9 -29 24 -58 34 -65z m-409 -613 c17
-13 18 -19 7 -44 -11 -29 -12 -29 -23 -8 -14 27 -61 52 -98 52 l-28 0 37 25
c20 13 42 38 49 54 l13 30 12 -47 c7 -25 21 -53 31 -62z m221 57 c2 -8 -2 -18
-7 -22 -6 -3 -11 -1 -11 6 0 6 -8 18 -17 25 -16 13 -16 13 7 10 14 -1 26 -10
28 -19z"/>
<path d="M7035 8255 c-29 -28 -32 -70 -8 -105 23 -34 33 -40 70 -40 69 0 96
88 44 141 -36 36 -73 37 -106 4z"/>
<path d="M4603 6972 c-72 -26 -177 -101 -162 -117 3 -2 25 2 49 9 193 57 361
3 565 -184 60 -55 111 -98 113 -96 8 8 -67 154 -105 204 -54 70 -130 134 -200
168 -77 36 -185 43 -260 16z"/>
<path d="M7520 6901 c0 -5 16 -35 36 -67 79 -129 202 -405 234 -522 l10 -40
86 -7 c47 -4 87 -5 90 -3 18 18 -119 372 -208 536 l-61 112 -93 0 c-52 0 -94
-4 -94 -9z"/>
<path d="M3593 6800 c-184 -33 -295 -140 -349 -335 -10 -37 -18 -113 -20 -195
l-4 -135 18 70 c41 160 116 298 192 353 l35 26 -37 -39 c-42 -46 -98 -160
-123 -255 -26 -97 -31 -281 -11 -372 21 -91 75 -191 158 -288 130 -151 301
-264 538 -352 58 -22 123 -50 145 -63 48 -27 188 -155 180 -163 -3 -3 -18 6
-33 20 -32 31 -125 90 -167 106 -35 14 -267 64 -272 58 -4 -4 59 -31 165 -71
78 -29 144 -74 171 -115 l16 -25 -30 21 c-57 40 -114 64 -227 94 -197 54 -309
119 -436 254 -38 42 -73 76 -76 76 -3 0 -6 -26 -6 -58 0 -56 -2 -60 -46 -102
-50 -49 -137 -153 -199 -240 l-40 -54 75 60 c41 34 93 71 115 84 34 20 25 7
-55 -76 -669 -700 -908 -1058 -1065 -1597 -57 -195 -76 -299 -82 -462 -4 -129
-2 -165 16 -253 19 -90 87 -289 97 -280 1 2 -7 37 -18 78 -18 63 -22 103 -22
255 -1 196 13 273 70 388 24 47 79 117 93 117 4 0 4 -44 3 -97 -7 -186 34
-359 128 -542 168 -326 445 -628 730 -796 8 -5 -31 37 -87 93 -176 176 -256
323 -269 494 -8 96 4 221 16 178 61 -216 389 -490 792 -664 216 -93 399 -148
743 -221 439 -94 701 -223 1070 -527 l39 -33 -34 49 c-41 57 -214 246 -303
329 l-62 57 55 -23 c30 -14 123 -55 205 -92 424 -191 947 -314 1390 -328 77
-3 122 -3 100 -1 -22 3 -106 11 -187 19 -448 46 -897 182 -1241 376 -51 29
-211 123 -357 209 -146 87 -337 199 -425 250 -155 89 -345 208 -345 216 0 15
493 -229 655 -325 205 -122 386 -226 415 -240 27 -13 33 -18 -143 123 -210
168 -263 272 -326 636 -40 235 -37 376 14 576 44 172 118 302 286 497 48 56
85 104 83 106 -7 7 -150 -108 -194 -155 -23 -25 -44 -44 -46 -41 -3 2 15 31
39 64 44 59 195 202 315 296 34 27 62 51 62 53 0 2 -11 2 -24 -2 -14 -3 -32
-2 -41 3 -13 8 0 17 63 46 77 35 313 117 381 132 71 15 19 13 -104 -5 -139
-20 -362 -41 -423 -39 -35 1 -34 2 18 15 30 7 162 34 294 59 296 57 527 115
597 149 l54 26 -42 -38 c-23 -22 -73 -55 -110 -75 -41 -22 -60 -37 -47 -37 37
0 128 31 194 67 l64 35 19 -23 c10 -12 16 -28 13 -35 -3 -7 34 16 82 52 87 65
221 136 277 148 17 3 -1 -9 -40 -27 -149 -71 -306 -181 -339 -237 -18 -31 -18
-32 0 -27 11 4 33 9 49 13 27 6 204 74 308 119 37 15 38 15 28 -4 -6 -10 -32
-38 -58 -61 -38 -33 -43 -40 -23 -35 39 11 125 61 207 122 41 30 77 53 79 50
8 -8 -33 -83 -67 -122 l-31 -35 27 10 c39 15 114 67 162 113 24 23 45 39 48
36 2 -3 -9 -33 -25 -67 -16 -34 -27 -62 -25 -62 3 0 44 39 92 87 95 95 115 96
68 4 -14 -28 -23 -51 -19 -51 3 0 37 34 76 75 84 90 115 100 87 28 -10 -27 -9
-27 28 9 52 51 156 94 122 51 -13 -17 -12 -17 7 -3 121 86 167 122 211 167 28
29 53 48 55 42 2 -6 19 19 38 57 19 38 45 80 56 94 12 14 40 54 63 89 38 59
41 69 41 132 0 80 -25 157 -69 210 -37 44 -125 92 -211 114 -36 9 -103 38
-150 65 -47 26 -218 119 -380 205 -469 251 -477 256 -581 381 -141 169 -290
249 -635 339 -396 104 -615 182 -814 290 -180 98 -289 150 -296 142 -3 -3 7
-12 23 -21 16 -8 66 -42 110 -75 45 -33 105 -74 135 -91 l53 -32 -49 6 c-27 3
-86 21 -132 40 -46 18 -84 32 -84 31 0 -2 23 -20 50 -41 28 -21 50 -42 50 -47
0 -8 -53 19 -285 143 -67 35 -74 38 -45 14 19 -16 60 -51 91 -79 31 -27 90
-67 130 -89 42 -22 61 -35 44 -32 -16 4 -47 18 -67 32 -46 30 -46 30 -40 -1 2
-14 1 -25 -3 -25 -19 0 -150 73 -201 112 -164 126 -397 251 -526 282 -88 21
-107 20 -38 -3 129 -42 322 -160 460 -281 132 -117 267 -300 370 -501 29 -57
74 -131 100 -164 25 -33 52 -69 59 -80 11 -18 12 -17 7 11 -3 18 -8 45 -12 60
-11 49 12 14 31 -46 9 -30 28 -72 41 -92 13 -21 20 -38 15 -38 -28 0 -163 120
-198 176 -19 31 26 -127 52 -181 l24 -50 -57 61 c-44 46 -78 101 -147 234
-225 434 -379 632 -597 763 -160 97 -297 142 -459 151 -52 3 -117 1 -146 -4z
m532 -425 c96 -25 176 -68 243 -129 106 -99 147 -216 134 -383 l-6 -78 -18
105 c-24 138 -68 228 -151 312 -115 116 -266 173 -441 166 -91 -3 -97 -3 -61
8 58 18 229 17 300 -1z m1455 -121 c80 -19 195 -50 255 -69 161 -49 168 -50
85 -5 -105 57 -50 43 160 -42 293 -118 322 -136 500 -317 132 -134 90 -108
755 -477 83 -46 166 -94 185 -107 l35 -24 0 -89 c0 -107 16 -146 102 -248 88
-104 104 -133 101 -190 -4 -60 -22 -70 -38 -22 -18 54 -27 51 -22 -7 3 -42 0
-55 -15 -70 -19 -17 -20 -16 -33 40 -7 32 -14 54 -16 48 -1 -5 -8 -35 -14 -66
-7 -36 -21 -68 -40 -90 l-30 -34 15 37 c8 21 15 52 14 70 -1 32 -1 32 -16 -12
-22 -64 -59 -109 -107 -131 -62 -28 -75 -24 -39 14 17 17 38 47 48 65 l16 34
-23 -7 c-13 -4 -48 -23 -78 -41 -31 -19 -71 -38 -90 -44 l-35 -9 33 29 c17 16
32 39 32 51 0 11 5 29 10 40 14 26 7 24 -54 -10 -28 -16 -62 -32 -76 -36 -24
-8 -24 -7 -7 18 24 37 21 56 -10 68 l-28 11 34 15 33 14 -31 24 c-18 13 -46
29 -62 35 -40 17 -36 29 13 36 l42 7 -35 29 c-19 16 -51 34 -72 40 -45 13 -39
21 28 41 l50 14 -57 12 c-32 7 -79 10 -105 6 l-48 -6 40 22 c22 12 59 39 83
61 45 41 78 57 120 59 24 1 23 2 -8 10 -53 13 -80 3 -139 -54 -51 -49 -48 -39
10 30 31 37 59 53 92 53 25 0 24 2 -24 74 -48 74 -88 112 -184 176 l-50 34 58
-64 c124 -138 73 -114 -88 39 -49 47 -80 75 -69 61 11 -14 37 -51 58 -84 21
-32 57 -79 79 -104 23 -25 33 -39 21 -31 -55 39 -120 100 -161 154 -62 80
-113 137 -113 127 0 -14 98 -173 133 -217 l32 -39 -38 28 c-64 49 -170 194
-238 326 -80 156 -174 261 -278 313 -61 30 -72 32 -171 32 -92 0 -112 -3 -160
-26 -62 -29 -158 -112 -191 -165 -12 -19 -23 -33 -26 -31 -11 12 24 103 58
152 29 42 34 53 18 44 -40 -21 -98 -80 -136 -139 -21 -33 -41 -60 -45 -60 -5
0 -8 15 -8 33 0 58 -27 145 -61 201 -18 31 -34 54 -35 53 -2 -1 6 -34 17 -72
10 -38 19 -90 19 -115 l-1 -45 -28 66 c-33 78 -71 136 -164 247 -81 97 -120
125 -219 158 l-73 24 75 -4 c50 -2 105 -14 165 -34 49 -17 91 -29 93 -27 5 5
-124 75 -156 85 -25 8 -24 8 14 9 53 1 220 -41 291 -74 31 -14 58 -23 61 -21
3 4 -113 62 -248 125 -42 19 46 5 210 -35z m-679 -116 c41 -81 36 -80 -21 4
-28 40 -62 89 -77 108 -24 31 -22 30 21 -10 26 -25 61 -71 77 -102z m337 16
c110 -55 206 -223 226 -399 6 -49 5 -48 -51 65 -96 191 -161 280 -243 331
l-45 29 31 0 c16 0 53 -12 82 -26z m-79 -43 c44 -23 102 -85 130 -139 19 -38
93 -273 88 -279 -2 -1 -40 73 -84 166 -64 132 -92 179 -132 220 -27 28 -48 51
-45 51 3 0 22 -9 43 -19z m-842 -174 c68 -35 88 -63 123 -175 51 -163 48 -178
-11 -62 -67 131 -129 198 -212 229 -32 11 -74 22 -95 22 -20 1 -50 5 -67 10
-19 5 14 7 90 5 107 -2 126 -5 172 -29z m847 -136 c24 -72 42 -131 41 -131 -8
0 -54 90 -68 130 -16 50 -32 149 -23 139 4 -4 26 -65 50 -138z m65 72 c24 -48
51 -113 47 -113 -8 0 -37 53 -56 100 -23 59 -19 66 9 13z m-1456 -199 c34 -37
102 -94 152 -127 108 -73 190 -154 229 -227 l29 -55 -79 76 c-60 58 -103 88
-181 128 -117 60 -160 101 -217 211 -36 67 -76 171 -76 194 0 6 18 -22 40 -61
23 -40 69 -103 103 -139z m2422 152 c28 -13 59 -31 70 -40 14 -12 7 -10 -24 4
-54 27 -137 36 -183 21 -59 -19 -124 -67 -167 -121 -47 -59 -53 -48 -15 28 57
115 202 164 319 108z m-1323 -216 l28 -45 -40 44 c-24 26 -46 63 -55 94 -24
79 -17 89 12 17 14 -36 39 -85 55 -110z m1341 26 c6 -15 -11 -36 -29 -36 -14
0 -23 20 -16 38 6 16 39 15 45 -2z m-298 -235 c22 -19 59 -43 84 -54 75 -33
208 -13 341 52 l45 22 -30 -26 c-40 -35 -113 -72 -178 -90 l-52 -15 56 4 c55
4 143 40 183 75 18 15 18 15 8 -6 -7 -12 -29 -36 -49 -53 -35 -28 -36 -30 -10
-20 50 18 52 11 7 -35 l-44 -45 46 0 c55 0 148 -18 148 -29 0 -4 -36 -18 -80
-30 -67 -18 -110 -22 -263 -24 -172 -2 -187 0 -277 26 -82 23 -113 27 -228 27
-86 0 -131 4 -127 10 3 6 25 10 49 10 23 0 87 7 142 15 l99 15 60 -29 c37 -18
83 -32 120 -35 l60 -5 -41 13 c-65 22 -97 41 -135 84 -29 33 -45 42 -85 47
-50 8 -104 32 -104 48 0 5 8 6 18 3 9 -3 41 -10 70 -16 30 -5 58 -12 63 -15
16 -11 9 8 -22 56 -41 64 -33 83 10 24 41 -57 139 -131 193 -145 58 -16 65 -8
16 19 -83 46 -168 146 -168 198 0 13 5 9 18 -12 10 -17 36 -45 57 -64z m-1375
-1 c-44 -35 -193 -69 -175 -40 3 6 16 10 28 10 12 1 51 11 87 24 82 29 91 30
60 6z m2101 -49 c19 -21 49 -61 68 -88 l34 -48 -37 34 c-20 19 -36 29 -36 23
0 -7 -16 -2 -39 14 -22 14 -66 36 -98 50 -32 13 -51 24 -43 24 31 0 87 -21
133 -50 26 -16 47 -26 47 -21 0 5 -24 35 -52 67 -29 31 -44 52 -32 46 11 -6
36 -29 55 -51z m-2113 -13 c-8 -13 -34 -38 -57 -55 -33 -25 -52 -33 -84 -33
l-42 0 41 19 c23 10 65 35 94 55 61 42 68 44 48 14z m1193 -69 c-24 -9 -215
-23 -196 -14 18 9 119 23 170 23 42 1 46 -1 26 -9z m-1214 -97 c-46 -60 -77
-90 -77 -77 0 21 98 133 118 135 2 0 -17 -26 -41 -58z m103 -39 c-83 -76 -149
-128 -155 -121 -6 6 79 105 111 131 28 21 94 56 109 57 5 0 -24 -30 -65 -67z
m3108 43 c67 -35 97 -105 64 -146 -19 -23 -20 -23 -45 -7 -14 9 -30 32 -37 52
-16 48 -33 45 -28 -5 2 -22 1 -40 -3 -40 -10 0 -79 79 -79 91 0 15 21 53 34
61 18 12 65 9 94 -6z m-2909 -30 c-21 -21 -240 -159 -281 -179 -49 -22 -120
-45 -108 -34 15 14 274 164 325 189 57 27 73 33 64 24z m1839 -44 l63 -18
-168 4 c-210 4 -223 5 -143 19 100 16 179 15 248 -5z m-18 -46 l65 -14 -95 -1
c-52 0 -113 2 -135 6 -36 6 -38 7 -15 14 40 11 110 9 180 -5z m-2024 -105
c-47 -48 -116 -83 -175 -88 l-46 -3 50 14 c28 9 53 15 56 16 4 0 37 23 75 50
38 28 71 50 73 50 3 0 -12 -17 -33 -39z m1854 -86 c158 -17 205 -32 70 -21
-372 29 -694 16 -965 -39 -317 -63 -501 -132 -730 -269 -71 -43 -133 -80 -137
-83 -5 -2 -8 -2 -8 1 0 6 160 122 225 163 193 122 478 216 785 258 134 18 554
13 760 -10z m-265 -34 c22 -5 31 -9 21 -10 -11 0 -117 -10 -235 -21 -230 -22
-428 -58 -631 -114 -69 -19 -126 -33 -128 -31 -8 8 218 88 310 109 259 61 548
90 663 67z m273 -57 c-3 -3 -57 -12 -119 -20 -99 -12 -171 -25 -286 -49 -20
-5 -24 -3 -13 3 23 15 168 53 235 62 72 9 191 12 183 4z m25 -55 c-215 -33
-367 -67 -544 -118 -71 -21 -129 -36 -129 -34 0 8 134 63 227 93 169 54 374
88 538 88 l90 0 -182 -29z m-3577 -136 c-81 -78 -247 -317 -400 -573 -47 -80
-90 -152 -96 -160 -5 -8 13 32 39 90 63 135 149 286 231 402 64 91 235 278
255 278 5 0 -8 -17 -29 -37z m3734 30 c-82 -15 -314 -69 -424 -99 -70 -19
-130 -33 -132 -31 -2 2 53 23 123 46 143 46 344 90 413 89 25 0 34 -3 20 -5z
m-1265 -49 c-38 -9 -128 -35 -200 -59 -71 -24 -139 -46 -150 -50 -11 -3 5 7
36 24 71 38 165 70 254 86 97 18 146 17 60 -1z m-1900 -75 c-84 -43 -193 -126
-287 -222 -55 -56 -70 -68 -47 -37 83 110 233 233 334 273 65 26 65 19 0 -14z
m3275 -15 c-47 -14 -156 -48 -244 -75 -87 -28 -160 -48 -163 -46 -12 13 248
101 402 136 83 19 87 9 5 -15z m-3050 -39 c-122 -33 -208 -70 -286 -121 -57
-37 -64 -40 -39 -15 66 65 206 131 323 151 87 14 88 9 2 -15z m123 -121 c-173
-21 -295 -69 -430 -170 -166 -124 -320 -310 -443 -537 -53 -96 -51 -77 4 38
160 338 451 613 709 669 34 8 109 14 167 14 l105 0 -112 -14z m1127 -50 c-322
-186 -594 -282 -884 -314 -79 -8 -230 1 -245 16 -2 2 28 4 68 4 159 0 459 62
652 134 52 19 186 78 299 130 113 52 210 95 215 96 6 0 -42 -30 -105 -66z
m-790 -174 c-38 -30 -104 -59 -161 -71 -65 -14 -204 -7 -249 13 -34 14 -32 15
65 10 118 -5 227 10 304 42 70 30 71 30 41 6z m-687 -219 c-104 -75 -185 -245
-217 -456 l-14 -90 -1 67 c-2 140 59 327 133 410 30 34 114 98 128 98 6 0 -7
-13 -29 -29z m802 -97 c-19 -31 -41 -87 -49 -124 -28 -124 -19 -208 44 -405
32 -101 63 -254 58 -288 -4 -31 -127 389 -140 483 -20 132 14 273 86 358 15
17 29 32 31 32 2 0 -12 -25 -30 -56z m544 40 c-15 -18 -83 -54 -101 -54 -11 1
99 69 111 70 2 0 -2 -7 -10 -16z m65 -60 c-44 -31 -88 -64 -99 -74 -46 -40
-47 -29 -1 18 42 44 144 111 170 112 4 0 -27 -25 -70 -56z m64 -106 c-25 -29
-71 -91 -103 -138 l-58 -85 109 105 c111 108 193 175 164 134 -75 -102 -207
-246 -285 -309 -196 -159 -238 -230 -284 -490 -17 -99 -19 -105 -20 -55 -1 74
25 306 44 386 8 36 24 83 36 107 36 73 127 183 197 240 96 77 105 79 37 6 -66
-70 -87 -98 -129 -174 l-28 -50 39 45 c21 25 96 107 167 182 111 119 136 143
154 147 2 1 -16 -23 -40 -51z m-425 -101 c-42 -48 -73 -102 -100 -171 -20 -53
-23 -56 -18 -22 9 58 42 120 92 176 25 28 47 50 50 50 3 0 -8 -15 -24 -33z
m-732 -271 c60 -109 145 -258 188 -330 159 -267 183 -329 48 -123 -148 226
-281 467 -341 618 -32 80 -29 76 105 -165z m1133 -72 c-30 -68 -68 -216 -88
-344 -16 -100 -36 -400 -32 -485 3 -49 2 -49 -10 -20 -78 192 -47 562 68 789
57 113 107 161 62 60z m-171 -203 c-42 -131 -91 -368 -100 -492 -6 -86 -7 -91
-16 -54 -5 22 -6 99 -3 170 5 130 30 256 70 350 18 41 77 138 81 133 2 -2 -13
-50 -32 -107z m-663 19 c-7 -71 -7 -72 -8 -20 -2 48 6 106 13 98 1 -2 -1 -37
-5 -78z m526 -147 c-27 -87 -66 -277 -66 -324 0 -16 -5 -29 -11 -29 -16 0 -5
177 16 255 16 60 74 189 82 181 3 -2 -7 -40 -21 -83z m-305 -884 c44 -17 79
-33 77 -35 -4 -4 -159 53 -167 62 -10 9 14 2 90 -27z"/>
<path d="M5968 6040 c-87 -15 -86 -26 4 -33 101 -7 201 -30 272 -61 78 -34
231 -140 305 -210 69 -65 70 -62 7 24 -97 134 -230 230 -361 263 -81 20 -170
27 -227 17z"/>
<path d="M7381 4978 c-13 -32 9 -63 44 -63 39 0 53 26 32 59 -22 33 -64 35
-76 4z"/>
<path d="M7276 4814 c-31 -30 -12 -64 36 -64 22 0 29 6 34 27 11 43 -38 69
-70 37z"/>
<path d="M7444 4745 c-7 -18 3 -35 21 -35 15 0 28 27 19 41 -8 14 -34 11 -40
-6z"/>
<path d="M4242 6803 c-7 -3 20 -20 60 -40 40 -19 95 -48 121 -65 26 -17 49
-29 51 -27 3 2 -25 34 -60 72 -62 65 -65 67 -111 66 -27 0 -54 -3 -61 -6z"/>
<path d="M7827 6242 c-12 -2 -11 -16 9 -85 53 -190 82 -397 85 -607 1 -125 1
-125 -22 -128 -73 -8 -269 -74 -269 -91 0 -3 42 -17 93 -30 50 -12 103 -30
117 -38 20 -12 18 -8 -8 17 -27 27 -33 38 -30 68 3 35 5 37 58 51 30 8 91 16
135 18 44 3 83 8 87 11 11 11 -10 384 -27 492 -8 52 -27 145 -41 207 l-25 111
-73 4 c-41 2 -80 2 -89 0z"/>
<path d="M7545 6206 c-180 -38 -386 -114 -543 -201 -71 -39 -261 -174 -262
-186 0 -6 133 -84 290 -170 58 -31 141 -78 185 -103 44 -26 147 -81 228 -122
l148 -75 52 20 c29 11 72 26 97 33 l45 13 -3 125 c-3 132 -24 328 -48 445 -27
134 -59 245 -69 244 -5 0 -59 -11 -120 -23z m-267 -285 c-109 -39 -253 -111
-322 -162 -46 -34 -67 -38 -40 -8 49 54 236 150 369 190 107 31 103 19 -7 -20z
m34 -218 c22 -19 24 -56 4 -72 -20 -16 -78 -10 -84 9 -4 12 -2 13 9 3 18 -18
44 -16 60 3 12 14 10 19 -15 39 -20 16 -24 24 -15 28 21 8 21 8 41 -10z"/>
<path d="M8410 6035 c69 -13 154 -31 189 -40 93 -23 86 -11 -8 14 -97 26 -235
51 -276 50 -16 0 26 -11 95 -24z"/>
<path d="M8688 5973 c7 -3 16 -2 19 1 4 3 -2 6 -13 5 -11 0 -14 -3 -6 -6z"/>
<path d="M8003 5412 l-83 -3 0 -84 c0 -87 -9 -106 -38 -83 -9 7 13 -16 49 -52
48 -47 70 -79 82 -114 23 -67 22 -179 -2 -255 -20 -65 -91 -172 -142 -215 -27
-23 -35 -41 -55 -124 -35 -148 -98 -321 -179 -490 -218 -451 -505 -799 -912
-1104 -342 -256 -744 -445 -1167 -549 -134 -33 -390 -79 -439 -79 -65 0 -70
-24 -25 -119 l21 -44 81 6 c253 19 641 121 931 246 835 360 1474 1017 1774
1823 58 155 122 370 150 508 11 50 22 95 25 98 9 9 177 -44 279 -88 50 -22 92
-38 94 -36 5 5 -167 84 -229 105 -32 11 -78 23 -103 27 l-46 6 6 122 c4 66 7
203 8 303 l2 183 40 0 c109 0 321 -45 492 -104 140 -48 144 -49 83 -20 -189
91 -470 146 -697 136z"/>
<path d="M7657 4352 c-26 -27 -26 -28 -7 -40 18 -11 20 -10 20 16 0 15 5 33
12 40 7 7 10 12 7 12 -3 0 -17 -12 -32 -28z"/>
<path d="M7515 4254 c-138 -86 -285 -159 -361 -179 -38 -10 -72 -21 -76 -24
-4 -3 2 -33 13 -66 11 -33 21 -78 24 -100 2 -22 2 -31 -1 -20 -3 11 -17 58
-31 103 -26 84 -26 84 -56 78 -16 -3 -107 -13 -201 -22 -94 -8 -202 -20 -241
-25 -38 -5 -121 -12 -184 -15 -62 -2 -118 -7 -123 -10 -5 -4 -50 -61 -100
-128 -50 -66 -93 -123 -96 -126 -14 -12 38 63 105 152 40 53 73 100 73 103 0
3 -82 4 -182 2 -156 -4 -197 -8 -279 -30 -181 -48 -244 -94 -415 -307 -263
-327 -311 -397 -359 -533 -46 -130 -59 -222 -52 -380 9 -202 13 -211 127 -249
l55 -18 -73 3 c-69 2 -73 1 -68 -18 3 -11 6 -26 6 -32 0 -44 466 42 744 137
579 198 1034 508 1409 959 145 174 277 384 361 577 37 83 82 225 73 224 -1 0
-42 -26 -92 -56z m-388 -446 c-3 -7 -5 -2 -5 12 0 14 2 19 5 13 2 -7 2 -19 0
-25z"/>
<path d="M6310 4070 c-19 -17 -26 -27 -15 -21 19 9 63 51 54 51 -3 0 -20 -14
-39 -30z"/>
<path d="M5960 2001 c-14 -27 -13 -47 6 -65 24 -24 61 -20 80 9 15 23 15 27 0
50 -21 31 -70 35 -86 6z"/>
</g>
</svg>